<?xml version="1.0" encoding="utf-8"?>
<!-- Generator: Adobe Illustrator 22.0.1, SVG Export Plug-In . SVG Version: 6.00 Build 0)  -->
<svg version="1.1" id="Layer_1" xmlns="http://www.w3.org/2000/svg" xmlns:xlink="http://www.w3.org/1999/xlink" x="0px" y="0px"
	 viewBox="0 0 250 250" style="enable-background:new 0 0 250 250;" xml:space="preserve">
<style type="text/css">
	.st0{fill:url(#SVGID_1_);}
	.st1{fill:#223644;}
	.st2{fill:#58595B;}
	.st3{fill:url(#SVGID_2_);}
	.st4{fill:#010101;}
	.st5{fill:#8C9EA6;}
	.st6{fill:#FFFFFF;}
	.st7{fill:#5FC0AC;}
</style>
<linearGradient id="SVGID_1_" gradientUnits="userSpaceOnUse" x1="125" y1="2" x2="125" y2="250.8152">
	<stop  offset="0" style="stop-color:#849DA6"/>
	<stop  offset="1" style="stop-color:#6F939E"/>
</linearGradient>
<rect x="-3" y="-3" class="st0" width="256" height="256"/>
<path class="st1" d="M146.7,91.3L146.7,91.3l1.4-0.9l17.7-10.5l2.2,3.8l20-11.9l-24.5-41.1l-0.7-1.2l-1,0.5l-19,11.4l1.8,3
	c-7.4,4.7-14.9,9.5-22.2,14.1C109,67.2,95,76.1,81.2,84.7C69.4,92,61.3,98.3,54.9,105.2c-7.9,8.6-13.2,18.2-16,29.3
	c-5,20-1.3,41.2,10.4,58.1c5.1,7.4,11.3,13.7,18.7,18.7c7,4.8,14.7,8.2,22.9,10.3c5.9,1.5,11.8,2.2,17.7,2.2
	c12.8,0,25.4-3.4,36.6-10.2c16.5-9.8,28.1-25.5,32.8-44c3.9-15.3,2.7-31.1-3.5-45.6C168.9,110.8,158.9,99,146.7,91.3z M145.9,42.1
	l1.2,2l21.7,36.4l16.1-9.6l0,0l-16.1,9.6l-21.7-36.4L145.9,42.1L145.9,42.1z M77.3,144.2c2.2-8.7,7.8-15.8,15.1-20l54.3-35.6l0,0
	l17.9-10.7l0,0l-17.9,10.7l0,0l-54.3,35.6C85.1,128.5,79.5,135.5,77.3,144.2c-0.8,3.2-1.1,6.5-0.9,9.6
	C76.2,150.7,76.5,147.4,77.3,144.2z M140.7,150.6c0-1-0.1-2.1-0.3-3.1c0,0,0,0,0,0C140.5,148.5,140.6,149.5,140.7,150.6z
	 M138.4,150.7c0.1,2.9-0.2,5.9-0.9,8.8c-3.4,13.3-15.3,22.6-29,22.6c-2.5,0-4.9-0.3-7.4-0.9c-13-3.3-21.8-14.7-22.5-27.4
	c0.7,12.7,9.5,24.1,22.5,27.4c2.4,0.6,4.9,0.9,7.4,0.9c13.7,0,25.6-9.3,29-22.6C138.2,156.5,138.5,153.6,138.4,150.7z M177.9,148.6
	c0.4,6.8-0.3,13.7-2,20.6c-4.5,18-15.8,33.1-31.8,42.7c-15.9,9.5-34.6,12.2-52.6,7.7c-8-2-15.5-5.4-22.2-10
	c-7.1-4.9-13.2-11-18.1-18.1c-7.4-10.8-11.5-23.4-12.1-36.2c0.6,12.8,4.7,25.4,12.1,36.2c4.9,7.1,11,13.2,18.1,18.1
	c6.7,4.6,14.2,8,22.2,10c18,4.6,36.7,1.8,52.6-7.7c15.9-9.5,27.2-24.7,31.8-42.7C177.6,162.3,178.3,155.4,177.9,148.6z"/>
<g>
	<g>
		<path class="st1" d="M91.3,143.2c-4,16,5.7,32.3,21.7,36.3c2.4,0.6,4.9,0.9,7.4,0.9c13.7,0,25.6-9.3,29-22.6
			c2-7.7,0.8-15.8-3.3-22.7c-4.1-6.9-10.6-11.7-18.4-13.7c-2.4-0.6-4.9-0.9-7.4-0.9c-5.4,0-10.4,1.4-14.8,3.9l-0.2,0.1l0,0
			C98.5,128.6,93.4,135.1,91.3,143.2z"/>
		<path class="st2" d="M157.2,91.6l-0.7-0.5L113.9,119c2.1-0.4,4.2-0.6,6.4-0.6c2.7,0,5.3,0.3,7.9,1c8.3,2.1,15.3,7.3,19.7,14.7
			c4.4,7.4,5.7,16,3.6,24.4c-3.6,14.3-16.4,24.3-31.2,24.3c-2.7,0-5.3-0.3-7.9-1c-17.2-4.3-27.6-21.9-23.3-39.1
			c2.2-8.7,7.8-15.8,15.1-20L158.6,87l0,0l17.9-10.7l-18.9-31.6c-7.4,4.7-14.9,9.5-22.1,14.1C122,67.4,108,76.4,94.2,85
			C73.6,97.8,58.7,110.9,53,133.5c-4.9,19.3-1.2,39.9,10.1,56.3c4.9,7.1,11,13.2,18.1,18.1c6.7,4.6,14.2,8,22.2,10
			c18,4.6,36.7,1.8,52.6-7.7c15.9-9.5,27.2-24.7,31.8-42.7C195.1,138.4,182.5,107.4,157.2,91.6z"/>
		<polygon class="st2" points="180.7,78.9 196.8,69.3 173.9,30.9 157.7,40.5 159,42.5 		"/>
	</g>
	<linearGradient id="SVGID_2_" gradientUnits="userSpaceOnUse" x1="157.2462" y1="134.6094" x2="138.5145" y2="103.2966">
		<stop  offset="0" style="stop-color:#4A4A4A;stop-opacity:0"/>
		<stop  offset="0.463" style="stop-color:#656669;stop-opacity:0.7395"/>
		<stop  offset="1" style="stop-color:#000000"/>
	</linearGradient>
	<path class="st3" d="M157.8,90.9l-0.7-0.5l-44.6,29.3c2.2-0.4,4.4-0.7,6.7-0.7c2.8,0,5.6,0.3,8.3,1c8.7,2.2,16.1,7.7,20.7,15.4
		c2.2,3.6,3.6,7.5,4.3,11.6l33.9-22.3C180.6,111,170.8,99.1,157.8,90.9z"/>
	<g>
		<path class="st4" d="M99.6,138.5c0.1,0,6.8,0.8,12.1,6.3c-3.1-0.8-7-1.5-10.6-1.5c-3,0-5.2,0.6-6.7,1.7l-0.5,0.4l1.8,12.7l1.5-1.3
			c0.1,0,5.1-4.1,12.5-4.1c-4.7,2.9-11.2,7.6-11.8,12.1l-0.1,0.7l10.2,7.7l0.2-2c0-0.1,0.8-7,6.6-12.4c-1.4,5.4-2.8,13.8,0.1,17.6
			l0.4,0.5l12.7-1.8l-1.3-1.5c0-0.1-4.1-5.2-4.1-12.6c2.9,4.7,7.5,10.9,12,11.5l0.7,0.1l7.7-10.2l-2-0.2c-0.1,0-6.4-0.7-11.7-5.9
			c3,0.7,6.7,1.4,10,1.4c0,0,0,0,0,0c3,0,5.2-0.6,6.7-1.7l0.5-0.4l-1.8-12.7l-1.5,1.3c-0.1,0-5.1,4.1-12.5,4.1c-0.1,0-0.3,0-0.4,0
			c4.7-2.9,11.3-7.6,11.9-12.2l0.1-0.7l-10.2-7.7l-0.2,2c0,0.1-0.7,6.2-5.5,11.3c1.2-5.3,2.3-12.8-0.4-16.3l-0.4-0.5L113,126
			l1.3,1.5c0,0.1,4.2,5.2,4.1,12.8c-2.9-4.7-7.7-11.5-12.3-12.1l-0.7-0.1l-7.7,10.2L99.6,138.5z M116.9,149.7
			c0.4-1.5,1.8-2.6,3.4-2.6c0.3,0,0.6,0,0.9,0.1c0.6,0.2,1.1,0.5,1.6,0.9l0.9,1.5c0.2,0.6,0.2,1.2,0,1.8c-0.2,0.6-0.5,1.2-0.9,1.6
			l-1.5,0.9c-0.3,0.1-0.6,0.1-1,0.1c-0.3,0-0.6,0-0.9-0.1c-0.9-0.2-1.7-0.8-2.1-1.6C116.9,151.5,116.7,150.6,116.9,149.7
			L116.9,149.7z M109.8,150.4c-5.7,0-10.2,2.2-12.4,3.5l-1-7.6c1.1-0.6,2.7-0.9,4.8-0.9c4.5,0,10,1.4,12.9,2.2
			c0.2,0.2,0.3,0.5,0.4,0.7l0.3,0.5l0,0.2c0,0,0,0,0,0c0,0,0,0,0,0l-0.2,0.9c-0.2,0.1-0.7,0.4-1.3,0.7
			C112.1,150.5,110.9,150.4,109.8,150.4z M106.4,169.1l-6.1-4.6c1.2-4,8.7-8.9,13.3-11.5c0.4,0.1,0.8,0.2,1.3,0.3l0.4,0.1l0.8,1.4
			c0,0.1-0.1,0.2-0.1,0.4C109.4,159.6,107.2,166,106.4,169.1z M124,173.5l-7.6,1c-2.1-3.8,0-13,1.4-17.9c0.1-0.1,0.3-0.2,0.4-0.3
			l0.5-0.3l0.2,0c0,0,0,0,0,0c0,0,0,0,0,0l1.2,0.3c0.2,0.3,0.4,0.7,0.6,1.2C119.6,165,122.4,170.8,124,173.5z M139,164.1l-4.6,6.1
			c-4-1.2-8.7-8.4-11.3-13c0.1-0.4,0.2-0.8,0.3-1.2l0.2-0.8c0.2-0.1,0.4-0.3,0.5-0.4c0.3,0.1,0.8,0.2,1.5,0.5
			C130,161.3,136,163.4,139,164.1z M130.8,150.6c5.7,0,10.2-2.2,12.4-3.5l1,7.6c-1.1,0.6-2.7,0.9-4.8,0.9c0,0,0,0,0,0
			c-4.3,0-9.6-1.3-12.5-2.1c-0.3-0.4-0.5-0.7-0.7-1.1l-0.3-0.5l0.3-1c0.2-0.1,0.5-0.3,0.9-0.5C128.3,150.5,129.6,150.6,130.8,150.6z
			 M133.9,131.9l6.1,4.6c-1.2,4.1-8.7,8.9-13.3,11.5c-0.3-0.1-0.6-0.1-0.9-0.2l-0.5-0.1c0,0,0,0,0,0c-0.1-0.2-0.3-0.4-0.4-0.6l0,0
			c0.1-0.3,0.3-1,0.6-2C131.2,140.7,133.2,134.8,133.9,131.9z M117.1,127.7l7.6-1c2,3.6,0.3,12-1.2,17c-0.5,0.3-0.9,0.7-1.5,1
			l-0.5,0.3l-0.7-0.2c-0.1-0.2-0.3-0.5-0.5-1C121.6,136.3,118.8,130.4,117.1,127.7z M106.4,130.5c4.1,1.2,9.2,9.1,11.6,13.6
			c-0.1,0.3-0.1,0.7-0.2,1l0,0.1l-1.4,0.8c-0.2-0.1-0.5-0.2-0.8-0.3c-4.4-6.3-10.7-8.5-13.7-9.2L106.4,130.5z"/>
		<path class="st5" d="M158.6,89.7L158.6,89.7l1.4-0.9l17.7-10.5l2.2,3.8l20-11.9L175.4,29l-0.7-1.2l-1,0.5l-19,11.4l1.8,3
			c-7.4,4.7-14.9,9.5-22.2,14.1c-13.5,8.6-27.5,17.6-41.3,26.2c-11.8,7.3-19.9,13.6-26.3,20.6c-7.9,8.6-13.2,18.2-16,29.3
			c-5,20-1.3,41.2,10.4,58.1c5.1,7.4,11.3,13.7,18.7,18.7c7,4.8,14.7,8.2,22.9,10.3c5.9,1.5,11.8,2.2,17.7,2.2
			c12.8,0,25.4-3.4,36.6-10.2c16.5-9.8,28.1-25.5,32.8-44c3.9-15.3,2.7-31.1-3.5-45.6C180.7,109.2,170.7,97.5,158.6,89.7z
			 M173.9,30.9l22.9,38.4L180.7,79L159,42.6l-1.2-2.1L173.9,30.9z M187.7,167.6c-4.5,18-15.8,33.1-31.8,42.7
			c-15.9,9.5-34.6,12.2-52.6,7.7c-8-2-15.5-5.4-22.2-10c-7.1-4.9-13.2-11-18.1-18.1c-11.3-16.5-14.9-37-10.1-56.3
			c5.7-22.6,20.6-35.7,41.2-48.5c13.9-8.6,27.8-17.5,41.4-26.2c7.2-4.6,14.7-9.4,22.1-14.1l18.9,31.6L158.6,87l0,0l-54.3,35.6
			c-7.4,4.2-12.9,11.3-15.1,20c-4.3,17.2,6.1,34.7,23.3,39.1c2.6,0.7,5.3,1,7.9,1c14.7,0,27.5-10,31.2-24.3c2.1-8.3,0.8-17-3.6-24.4
			c-4.4-7.4-11.4-12.6-19.7-14.7c-2.6-0.7-5.3-1-7.9-1c-2.2,0-4.3,0.2-6.4,0.6l42.6-27.9l0.7,0.5
			C182.5,107.5,195.1,138.4,187.7,167.6z M105.3,124.7l0.2-0.1c4.4-2.5,9.5-3.9,14.8-3.9c2.5,0,4.9,0.3,7.4,0.9
			c7.7,2,14.3,6.8,18.4,13.7c4.1,6.9,5.3,14.9,3.3,22.7c-3.4,13.3-15.3,22.6-29,22.6c-2.5,0-4.9-0.3-7.4-0.9
			c-16-4-25.7-20.3-21.7-36.3C93.4,135.2,98.5,128.6,105.3,124.7L105.3,124.7z"/>
	</g>
</g>
<g>
	<path class="st6" d="M99.9,137.7c0.1,0,6.8,0.8,12.1,6.3c-3.1-0.8-7-1.5-10.6-1.5c-3,0-5.2,0.6-6.7,1.7l-0.5,0.4l1.8,12.7l1.5-1.3
		c0.1,0,5.1-4.1,12.5-4.1c-4.7,2.9-11.2,7.6-11.8,12.1l-0.1,0.7l10.2,7.7l0.2-2c0-0.1,0.8-7,6.6-12.4c-1.4,5.4-2.8,13.8,0.1,17.6
		l0.4,0.5l12.7-1.8l-1.3-1.5c0-0.1-4.1-5.2-4.1-12.6c2.9,4.7,7.5,10.9,12,11.5l0.7,0.1l7.7-10.2l-2-0.2c-0.1,0-6.4-0.7-11.7-5.9
		c3,0.7,6.7,1.4,10,1.4c0,0,0,0,0,0c3,0,5.2-0.6,6.7-1.7l0.5-0.4l-1.8-12.7l-1.5,1.3c-0.1,0-5.1,4.1-12.5,4.1c-0.1,0-0.3,0-0.4,0
		c4.7-2.9,11.3-7.6,11.9-12.2l0.1-0.7l-10.2-7.7l-0.2,2c0,0.1-0.7,6.2-5.5,11.3c1.2-5.3,2.3-12.8-0.4-16.3l-0.4-0.5l-12.7,1.8
		l1.3,1.5c0,0.1,4.2,5.2,4.1,12.8c-2.9-4.7-7.7-11.5-12.3-12.1l-0.7-0.1l-7.7,10.2L99.9,137.7z M117.2,148.8
		c0.4-1.5,1.8-2.6,3.4-2.6c0.3,0,0.6,0,0.9,0.1c0.6,0.2,1.1,0.5,1.6,0.9l0.9,1.5c0.2,0.6,0.2,1.2,0,1.8c-0.2,0.6-0.5,1.2-0.9,1.6
		l-1.5,0.9c-0.3,0.1-0.6,0.1-1,0.1c-0.3,0-0.6,0-0.9-0.1c-0.9-0.2-1.7-0.8-2.1-1.6C117.1,150.7,117,149.8,117.2,148.8L117.2,148.8z
		 M110.1,149.6c-5.7,0-10.2,2.2-12.4,3.5l-1-7.6c1.1-0.6,2.7-0.9,4.8-0.9c4.5,0,10,1.4,12.9,2.2c0.2,0.2,0.3,0.5,0.4,0.7l0.3,0.5
		l0,0.2c0,0,0,0,0,0c0,0,0,0,0,0l-0.2,0.9c-0.2,0.1-0.7,0.4-1.3,0.7C112.4,149.7,111.2,149.6,110.1,149.6z M106.7,168.3l-6.1-4.6
		c1.2-4,8.7-8.9,13.3-11.5c0.4,0.1,0.8,0.2,1.3,0.3l0.4,0.1l0.8,1.4c0,0.1-0.1,0.2-0.1,0.4C109.7,158.8,107.4,165.1,106.7,168.3z
		 M124.3,172.6l-7.6,1c-2.1-3.8,0-13,1.4-17.9c0.1-0.1,0.3-0.2,0.4-0.3l0.5-0.3l0.2,0c0,0,0,0,0,0c0,0,0,0,0,0l1.2,0.3
		c0.2,0.3,0.4,0.7,0.6,1.2C119.9,164.2,122.6,170,124.3,172.6z M139.3,163.3l-4.6,6.1c-4-1.2-8.7-8.4-11.3-13
		c0.1-0.4,0.2-0.8,0.3-1.2l0.2-0.8c0.2-0.1,0.4-0.3,0.5-0.4c0.3,0.1,0.8,0.2,1.5,0.5C130.2,160.5,136.2,162.6,139.3,163.3z
		 M131.1,149.8c5.7,0,10.2-2.2,12.4-3.5l1,7.6c-1.1,0.6-2.7,0.9-4.8,0.9c0,0,0,0,0,0c-4.3,0-9.6-1.3-12.5-2.1
		c-0.3-0.4-0.5-0.7-0.7-1.1l-0.3-0.5l0.3-1c0.2-0.1,0.5-0.3,0.9-0.5C128.6,149.7,129.9,149.8,131.1,149.8z M134.2,131l6.1,4.6
		c-1.2,4.1-8.7,8.9-13.3,11.5c-0.3-0.1-0.6-0.1-0.9-0.2l-0.5-0.1c0,0,0,0,0,0c-0.1-0.2-0.3-0.4-0.4-0.6l0,0c0.1-0.3,0.3-1,0.6-2
		C131.4,139.8,133.5,134,134.2,131z M117.4,126.9l7.6-1c2,3.6,0.3,12-1.2,17c-0.5,0.3-0.9,0.7-1.5,1l-0.5,0.3l-0.7-0.2
		c-0.1-0.2-0.3-0.5-0.5-1C121.9,135.4,119,129.6,117.4,126.9z M106.6,129.7c4.1,1.2,9.2,9.1,11.6,13.6c-0.1,0.3-0.1,0.7-0.2,1l0,0.1
		l-1.4,0.8c-0.2-0.1-0.5-0.2-0.8-0.3c-4.4-6.3-10.7-8.5-13.7-9.2L106.6,129.7z"/>
	<path class="st7" d="M117.2,148.8c0.4-1.5,1.8-2.6,3.4-2.6c0.3,0,0.6,0,0.9,0.1c0.6,0.2,1.1,0.5,1.6,0.9l0.9,1.5
		c0.2,0.6,0.2,1.2,0,1.8c-0.2,0.6-0.5,1.2-0.9,1.6l-1.5,0.9c-0.3,0.1-0.6,0.1-1,0.1c-0.3,0-0.6,0-0.9-0.1c-0.9-0.2-1.7-0.8-2.1-1.6
		C117.1,150.6,117,149.7,117.2,148.8L117.2,148.8z M110.1,149.6c-5.7,0-10.2,2.2-12.4,3.5l-1-7.6c1.1-0.6,2.7-0.9,4.8-0.9
		c4.5,0,10,1.4,12.9,2.2c0.2,0.2,0.3,0.5,0.4,0.7l0.3,0.5l0,0.2c0,0,0,0,0,0c0,0,0,0,0,0l-0.2,0.9c-0.2,0.1-0.7,0.4-1.3,0.7
		C112.4,149.6,111.2,149.6,110.1,149.6z M106.7,168.2l-6.1-4.6c1.2-4,8.7-8.9,13.3-11.5c0.4,0.1,0.8,0.2,1.3,0.3l0.4,0.1l0.8,1.4
		c0,0.1-0.1,0.2-0.1,0.4C109.7,158.7,107.4,165.1,106.7,168.2z M124.3,172.6l-7.6,1c-2.1-3.8,0-13,1.4-17.9c0.1-0.1,0.3-0.2,0.4-0.3
		l0.5-0.3l0.2,0c0,0,0,0,0,0c0,0,0,0,0,0l1.2,0.3c0.2,0.3,0.4,0.7,0.6,1.2C119.9,164.1,122.6,169.9,124.3,172.6z M139.3,163.2
		l-4.6,6.1c-4-1.2-8.7-8.4-11.3-13c0.1-0.4,0.2-0.8,0.3-1.2l0.2-0.8c0.2-0.1,0.4-0.3,0.5-0.4c0.3,0.1,0.8,0.2,1.5,0.5
		C130.2,160.4,136.2,162.5,139.3,163.2z M131.1,149.7c5.7,0,10.2-2.2,12.4-3.5l1,7.6c-1.1,0.6-2.7,0.9-4.8,0.9c0,0,0,0,0,0
		c-4.3,0-9.6-1.3-12.5-2.1c-0.3-0.4-0.5-0.7-0.7-1.1l-0.3-0.5l0.3-1c0.2-0.1,0.5-0.3,0.9-0.5C128.6,149.6,129.9,149.7,131.1,149.7z
		 M134.2,131l6.1,4.6c-1.2,4.1-8.7,8.9-13.3,11.5c-0.3-0.1-0.6-0.1-0.9-0.2l-0.5-0.1c0,0,0,0,0,0c-0.1-0.2-0.3-0.4-0.4-0.6l0,0
		c0.1-0.3,0.3-1,0.6-2C131.4,139.8,133.5,133.9,134.2,131z M117.4,126.8l7.6-1c2,3.6,0.3,12-1.2,17c-0.5,0.3-0.9,0.7-1.5,1l-0.5,0.3
		l-0.7-0.2c-0.1-0.2-0.3-0.5-0.5-1C121.9,135.4,119,129.5,117.4,126.8z M106.6,129.7c4.1,1.2,9.2,9.1,11.6,13.6
		c-0.1,0.3-0.1,0.7-0.2,1l0,0.1l-1.4,0.8c-0.2-0.1-0.5-0.2-0.8-0.3c-4.4-6.3-10.7-8.5-13.7-9.2L106.6,129.7z"/>
</g>
</svg>
